<svg xmlns="http://www.w3.org/2000/svg" viewBox="0 0 1000 618">
  <path d="M980,528c0,44.18-35.82,80-80,80H100c-44.18,0-80-35.82-80-80V90c0-44.18,35.82-80,80-80H900c44.18,0,80,35.82,80,80V528z" fill="#006FCF"/>
  <path d="M286.71,309L177.76,149.71H89.31v318.58h88.45L286.71,309z" fill="#FFFFFF"/>
  <path d="M562.76,149.71H372.47v318.58h190.29l90.76-159.29L562.76,149.71z" fill="#FFFFFF"/>
  <path d="M770.75,309L661.8,149.71H573.35v318.58h88.45L770.75,309z" fill="#FFFFFF"/>
  <path d="M910.69,309l-98.91-159.29h-77.5v318.58h77.5L910.69,309z" fill="#FFFFFF"/>
</svg> 