<svg xmlns="http://www.w3.org/2000/svg" viewBox="0 0 1000 618">
  <path d="M980,528c0,44.18-35.82,80-80,80H100c-44.18,0-80-35.82-80-80V90c0-44.18,35.82-80,80-80H900c44.18,0,80,35.82,80,80V528z" fill="#FFFFFF"/>
  <path d="M420,309c0-88.37,71.63-160,160-160h300v320H580C491.63,469,420,397.37,420,309z" fill="#F26E21"/>
  <path d="M189,315.5c0-14.64,11.86-26.5,26.5-26.5s26.5,11.86,26.5,26.5S230.14,342,215.5,342S189,330.14,189,315.5z" fill="#F26E21"/>
  <path d="M273,315.5c0-14.64,11.86-26.5,26.5-26.5s26.5,11.86,26.5,26.5S314.14,342,299.5,342S273,330.14,273,315.5z" fill="#F26E21"/>
  <path d="M357,315.5c0-14.64,11.86-26.5,26.5-26.5s26.5,11.86,26.5,26.5S398.14,342,383.5,342S357,330.14,357,315.5z" fill="#F26E21"/>
</svg> 