<svg xmlns="http://www.w3.org/2000/svg" viewBox="0 0 1000 618">
  <path d="M980,528c0,44.18-35.82,80-80,80H100c-44.18,0-80-35.82-80-80V89.31c0-44.18,35.82-80,80-80H900c44.18,0,80,35.82,80,80V528z" fill="#FFFFFF"/>
  <path d="M618,309c0,109.49-88.71,198.2-198.2,198.2S221.6,418.49,221.6,309s88.71-198.2,198.2-198.2S618,199.51,618,309z" fill="#D9222A"/>
  <path d="M778.4,309c0,109.49-88.71,198.2-198.2,198.2c-48.04,0-92.01-17.07-126.14-45.5c39.39-32.78,64.5-82.25,64.5-137.79s-25.11-105.01-64.5-137.79c34.14-28.42,78.11-45.5,126.14-45.5C689.69,110.8,778.4,199.51,778.4,309z" fill="#EE9F2D"/>
  <path d="M580.2,426.74c-18.94,22.87-35.3,32.56-67.17,32.56c-46.05,0-83.37-37.32-83.37-83.37c0-46.05,37.32-83.37,83.37-83.37c31.87,0,48.23,9.7,67.17,32.56h-18.97c-15.31-14.91-27.94-20.72-48.2-20.72c-37.42,0-67.72,30.3-67.72,67.72s30.3,67.72,67.72,67.72c20.26,0,32.89-5.82,48.2-20.72h13.88c1.7,2.57,3.32,5.2,4.84,7.9 " fill="#000000"/>
</svg> 