<svg width="134" height="32" viewBox="0 0 134 32" fill="none" xmlns="http://www.w3.org/2000/svg">
<g clip-path="url(#clip0_1305_11497)">
<path d="M129.738 0.986816H4.09415C3.2205 0.986816 2.38263 1.33387 1.76487 1.95164C1.14711 2.5694 0.800049 3.40727 0.800049 4.28092L0.800049 27.7194C0.800049 28.593 1.14711 29.4309 1.76487 30.0487C2.38263 30.6664 3.2205 31.0135 4.09415 31.0135H129.738C130.675 31.0135 131.574 30.6413 132.236 29.9788C132.898 29.3163 133.271 28.4178 133.271 27.4809V4.51937C133.271 3.58247 132.898 2.68396 132.236 2.02148C131.574 1.35899 130.675 0.986816 129.738 0.986816ZM132.387 27.4809C132.387 28.1836 132.108 28.8575 131.611 29.3543C131.115 29.8512 130.441 30.1303 129.738 30.1303H4.09415C3.45544 30.128 2.84355 29.8733 2.39191 29.4216C1.94027 28.97 1.68551 28.3581 1.68319 27.7194V4.28092C1.68551 3.64221 1.94027 3.03032 2.39191 2.57868C2.84355 2.12704 3.45544 1.87228 4.09415 1.86995H129.738C130.441 1.86995 131.115 2.14909 131.611 2.64595C132.108 3.14281 132.387 3.8167 132.387 4.51937V27.4809Z" fill="#334155" fill-opacity="0.7"/>
<path d="M15.8751 10.9131H12.0776V20.4156H13.7733V16.7418H15.8751C17.9947 16.7418 19.3194 15.7174 19.3194 13.8274C19.3194 11.9375 17.9947 10.9131 15.8751 10.9131ZM15.7868 15.3288H13.7733V12.4144H15.8133C17.032 12.4144 17.6767 12.9355 17.6767 13.8716C17.6767 14.8077 17.0055 15.2846 15.8133 15.2846L15.7868 15.3288Z" fill="#334155" fill-opacity="0.7"/>
<path d="M22.9668 13.3508C22.5025 13.3454 22.0423 13.4372 21.6156 13.6203C21.1889 13.8034 20.8052 14.0737 20.4892 14.4138C20.1731 14.754 19.9317 15.1565 19.7805 15.5955C19.6292 16.0344 19.5715 16.5002 19.6109 16.9629C19.5695 17.428 19.6254 17.8967 19.775 18.3391C19.9246 18.7815 20.1647 19.1879 20.48 19.5325C20.7952 19.877 21.1787 20.1522 21.6061 20.3404C22.0335 20.5287 22.4954 20.6259 22.9624 20.6259C23.4294 20.6259 23.8913 20.5287 24.3187 20.3404C24.7461 20.1522 25.1296 19.877 25.4449 19.5325C25.7601 19.1879 26.0002 18.7815 26.1498 18.3391C26.2994 17.8967 26.3553 17.428 26.3139 16.9629C26.3547 16.5007 26.2981 16.0351 26.1479 15.5961C25.9977 15.1571 25.7572 14.7545 25.4418 14.4142C25.1264 14.0739 24.7433 13.8034 24.317 13.6203C23.8907 13.4371 23.4308 13.3453 22.9668 13.3508ZM22.9668 19.2413C21.8894 19.2413 21.2006 18.3582 21.2006 16.9629C21.2006 15.5675 21.8717 14.6844 22.9668 14.6844C24.0619 14.6844 24.7331 15.5675 24.7331 16.9629C24.7331 18.3582 24.0354 19.2325 22.9668 19.2325V19.2413Z" fill="#334155" fill-opacity="0.7"/>
<path d="M33.2817 18.0753L32.0365 13.4653H30.7295L29.4931 18.0753L28.239 13.4653H26.6052L28.6983 20.4245H30.076L31.3477 15.8675L32.6194 20.4245H33.9971L36.0901 13.4653H34.5181L33.2817 18.0753Z" fill="#334155" fill-opacity="0.7"/>
<path d="M39.658 13.3506C39.1998 13.3591 38.7481 13.4606 38.3303 13.649C37.9125 13.8374 37.5374 14.1088 37.2277 14.4466C36.918 14.7844 36.6801 15.1816 36.5286 15.6141C36.3771 16.0466 36.315 16.5054 36.3462 16.9626C36.3093 17.4269 36.3697 17.8938 36.5235 18.3334C36.6774 18.773 36.9213 19.1757 37.2397 19.5157C37.558 19.8557 37.9438 20.1255 38.3724 20.3078C38.801 20.4901 39.2629 20.581 39.7286 20.5746C40.3689 20.6091 41.0039 20.4419 41.5441 20.0966C42.0844 19.7512 42.5027 19.245 42.7401 18.6494L41.4243 18.1019C41.321 18.4431 41.1048 18.7392 40.8111 18.9414C40.5175 19.1436 40.1638 19.2399 39.8081 19.2146C39.5548 19.2207 39.3029 19.1752 39.0676 19.0811C38.8324 18.9869 38.6187 18.846 38.4395 18.6668C38.2604 18.4876 38.1194 18.2739 38.0253 18.0387C37.9311 17.8034 37.8857 17.5515 37.8917 17.2982H42.7666V16.7683C42.7843 14.8608 41.7069 13.3506 39.658 13.3506ZM37.9535 16.1148C38.0154 15.7093 38.2223 15.3399 38.5357 15.0752C38.8491 14.8106 39.2478 14.6685 39.658 14.6753C39.8529 14.6588 40.049 14.684 40.2334 14.7492C40.4178 14.8145 40.5862 14.9182 40.7274 15.0535C40.8686 15.1889 40.9793 15.3527 41.0523 15.5342C41.1252 15.7157 41.1587 15.9106 41.1505 16.106L37.9535 16.1148Z" fill="#334155" fill-opacity="0.7"/>
<path d="M45.5662 14.4986V13.4654H43.9766V20.4157H45.5662V16.7683C45.552 16.5327 45.588 16.2967 45.6718 16.076C45.7555 15.8553 45.8852 15.6548 46.0521 15.4879C46.219 15.321 46.4194 15.1913 46.6402 15.1076C46.8609 15.0238 47.0968 14.9879 47.3325 15.002C47.5265 14.9883 47.7213 14.9883 47.9154 15.002V13.4124C47.7917 13.4124 47.6504 13.4124 47.465 13.4124C47.0776 13.3923 46.6927 13.484 46.356 13.6766C46.0194 13.8692 45.7452 14.1546 45.5662 14.4986Z" fill="#334155" fill-opacity="0.7"/>
<path d="M51.5628 13.3506C51.1046 13.3591 50.6529 13.4606 50.2351 13.649C49.8173 13.8374 49.4422 14.1088 49.1325 14.4466C48.8228 14.7844 48.5849 15.1816 48.4334 15.6141C48.2819 16.0466 48.2198 16.5054 48.251 16.9626C48.2141 17.4269 48.2745 17.8938 48.4283 18.3334C48.5822 18.773 48.8261 19.1757 49.1444 19.5157C49.4628 19.8557 49.8486 20.1255 50.2772 20.3078C50.7058 20.4901 51.1677 20.581 51.6334 20.5746C52.2678 20.6016 52.895 20.4309 53.4281 20.086C53.9613 19.7411 54.3741 19.2391 54.6096 18.6494L53.2496 18.1284C53.1463 18.4696 52.9301 18.7657 52.6364 18.9679C52.3428 19.17 51.9891 19.2664 51.6334 19.2411C51.3853 19.2388 51.1401 19.1873 50.912 19.0894C50.684 18.9915 50.4777 18.8493 50.3052 18.6709C50.1326 18.4926 49.9972 18.2818 49.9068 18.0507C49.8165 17.8196 49.773 17.5728 49.7788 17.3247H54.6714V16.7948C54.6714 14.8608 53.5763 13.3506 51.5628 13.3506ZM49.8583 16.1148C49.9219 15.7124 50.1283 15.3464 50.4397 15.0837C50.751 14.821 51.1466 14.6791 51.5539 14.6841C51.7488 14.6677 51.945 14.6929 52.1294 14.7581C52.3138 14.8233 52.4821 14.927 52.6233 15.0624C52.7645 15.1977 52.8753 15.3616 52.9482 15.543C53.0212 15.7245 53.0547 15.9194 53.0464 16.1148H49.8583Z" fill="#334155" fill-opacity="0.7"/>
<path d="M60.4647 14.2337C60.2196 13.9461 59.9129 13.7174 59.5674 13.5645C59.2219 13.4116 58.8464 13.3385 58.4688 13.3505C56.5171 13.3505 55.4043 14.9844 55.4043 16.9626C55.4043 18.9408 56.5171 20.5746 58.4688 20.5746C58.8467 20.5886 59.2228 20.5163 59.5686 20.3633C59.9144 20.2103 60.2209 19.9805 60.4647 19.6915V20.4156H62.0543V10.9131H60.4647V14.2337ZM60.4647 17.1922C60.5003 17.444 60.4811 17.7005 60.4084 17.9443C60.3358 18.188 60.2113 18.4131 60.0436 18.6043C59.8759 18.7955 59.6689 18.9482 59.4367 19.052C59.2046 19.1558 58.9527 19.2083 58.6984 19.2057C57.5415 19.2057 56.9321 18.3226 56.9321 16.9802C56.9321 15.6379 57.5503 14.7547 58.6984 14.7547C59.6787 14.7547 60.4647 15.4701 60.4647 16.7771V17.1922Z" fill="#334155" fill-opacity="0.7"/>
<path d="M70.8416 13.3505C70.4569 13.3337 70.0734 13.4045 69.72 13.5574C69.3666 13.7104 69.0526 13.9416 68.8016 14.2337V10.9131H67.2119V20.4156H68.8016V19.6826C69.048 19.9709 69.3561 20.2 69.7032 20.3529C70.0502 20.5057 70.4273 20.5785 70.8063 20.5658C72.7492 20.5658 73.8619 18.9231 73.8619 16.9537C73.8619 14.9843 72.7845 13.3505 70.8416 13.3505ZM70.5678 19.1793C70.3135 19.1818 70.0617 19.1293 69.8295 19.0255C69.5973 18.9217 69.3903 18.769 69.2226 18.5778C69.0549 18.3866 68.9305 18.1615 68.8578 17.9178C68.7851 17.674 68.7659 17.4175 68.8016 17.1657V16.7506C68.8016 15.4436 69.5434 14.7282 70.5678 14.7282C71.7159 14.7282 72.3341 15.6114 72.3341 16.9537C72.3341 18.2961 71.6718 19.1793 70.5678 19.1793Z" fill="#334155" fill-opacity="0.7"/>
<path d="M77.5711 18.3491L75.8667 13.4653H74.1887L76.7498 20.1683L76.4849 20.8219C76.4398 21.0458 76.3098 21.2435 76.1221 21.3736C75.9344 21.5037 75.7036 21.556 75.4781 21.5195C75.3017 21.5324 75.1246 21.5324 74.9482 21.5195V22.8531C75.1616 22.8848 75.3772 22.8996 75.5929 22.8972C76.1443 22.9373 76.6922 22.7824 77.141 22.4596C77.5897 22.1367 77.9108 21.6665 78.048 21.131L80.9094 13.5183H79.2403L77.5711 18.3491Z" fill="#334155" fill-opacity="0.7"/>
<path d="M111.192 11.9644C110.843 11.9624 110.498 12.0292 110.175 12.1611C109.852 12.2929 109.559 12.4872 109.311 12.7327L109.187 12.1234H107.077V23.5335L109.479 23.0124V20.2482C109.957 20.6483 110.56 20.8672 111.183 20.8664C112.897 20.8664 114.469 19.4622 114.469 16.3536C114.469 13.5099 112.879 11.9644 111.192 11.9644ZM110.618 18.7027C110.407 18.7149 110.197 18.68 110.001 18.6005C109.806 18.5211 109.63 18.3991 109.488 18.2435V14.6138C109.631 14.4525 109.808 14.3251 110.007 14.2411C110.205 14.1571 110.42 14.1185 110.636 14.1281C111.519 14.1281 112.119 15.126 112.119 16.4066C112.119 17.6871 111.51 18.7027 110.618 18.7027Z" fill="#334155" fill-opacity="0.7"/>
<path d="M118.902 11.9644C116.588 11.9644 115.184 13.9602 115.184 16.4772C115.184 19.4534 116.844 20.9635 119.211 20.9635C120.135 20.9786 121.047 20.7566 121.861 20.3188V18.3318C121.122 18.7045 120.304 18.8924 119.476 18.8793C118.522 18.8793 117.71 18.5349 117.586 17.378H122.337C122.337 17.2455 122.337 16.7245 122.337 16.4948C122.417 13.9602 121.216 11.9644 118.902 11.9644ZM117.604 15.5587C117.604 14.446 118.284 13.9779 118.884 13.9779C119.485 13.9779 120.121 14.446 120.121 15.5587H117.604Z" fill="#334155" fill-opacity="0.7"/>
<path d="M100.595 12.7854L100.444 12.0612H98.3955V20.6364H100.762V14.8254C100.976 14.5659 101.264 14.3778 101.587 14.2863C101.911 14.1947 102.255 14.2041 102.573 14.3132V12.0612C102.211 11.9196 101.811 11.9151 101.446 12.0485C101.082 12.1819 100.779 12.444 100.595 12.7854Z" fill="#334155" fill-opacity="0.7"/>
<path d="M88.6369 14.6401C88.6369 14.2516 88.9548 14.1014 89.4582 14.1014C90.2925 14.1194 91.1102 14.3374 91.8427 14.7373V12.4146C91.0854 12.1084 90.275 11.9554 89.4582 11.9642C87.5065 11.9642 86.2083 13.0063 86.2083 14.7549C86.2083 17.4927 89.8644 17.0511 89.8644 18.2257C89.8644 18.6849 89.4759 18.835 88.9813 18.835C88.0482 18.7805 87.1409 18.5083 86.3319 18.0402V20.4159C87.1657 20.7877 88.0683 20.9803 88.9813 20.9811C90.9772 20.9811 92.3549 19.9655 92.3549 18.1903C92.3107 15.223 88.6369 15.7529 88.6369 14.6401Z" fill="#334155" fill-opacity="0.7"/>
<path d="M95.5431 10.0303L93.2028 10.5425V18.4289C93.1907 18.7613 93.2466 19.0926 93.3669 19.4026C93.4872 19.7127 93.6695 19.9949 93.9025 20.2322C94.1356 20.4694 94.4146 20.6566 94.7225 20.7823C95.0304 20.9081 95.3607 20.9697 95.6932 20.9635C96.2734 20.9894 96.8515 20.8775 97.38 20.6368V18.6497C97.0709 18.7822 95.5608 19.2326 95.5608 17.7666V14.234H97.38V12.1675H95.5608L95.5431 10.0303Z" fill="#334155" fill-opacity="0.7"/>
<path d="M103.465 11.3197L105.876 10.8163V8.90869L103.465 9.41208V11.3197Z" fill="#334155" fill-opacity="0.7"/>
<path d="M105.876 12.123H103.465V20.6365H105.876V12.123Z" fill="#334155" fill-opacity="0.7"/>
</g>
<defs>
<clipPath id="clip0_1305_11497">
<rect width="132.471" height="30.0267" fill="white" transform="translate(0.800049 0.986816)"/>
</clipPath>
</defs>
</svg>
