<svg xmlns="http://www.w3.org/2000/svg" viewBox="0 0 1000 324.68">
  <path d="M651.19,0.31H348.81c-11.03,0-20,8.97-20,20V304.37c0,11.03,8.97,20,20,20H651.19c11.03,0,20-8.97,20-20V20.31C671.19,9.28,662.22,0.31,651.19,0.31Z" fill="#fff"/>
  <path d="M450.81,157.17l-38.1-71.45h-50.51l59.28,138.46h59.28l59.28-138.46h-50.51l-38.72,71.45Z" fill="#172b85"/>
  <path d="M331.38,85.73l-10.01,59.28c-5.86,30.87-30.36,49.33-63.13,49.33H167.36L156.56,229.13c-0.36,3.01,1.93,5.69,4.95,6.04,0.36,0.04,0.73,0.07,1.1,0.06h52.84c4.18,0.02,7.72-3.09,8.26-7.22l8.05-41.23h66.67c41.18,0,71.14-24.41,79.05-67l9.17-52.84c0.6-3.03-1.38-5.96-4.41-6.56-0.33-0.07-0.67-0.11-1.01-0.11h-49.85v24.45Z" fill="#faa61a"/>
  <path d="M813.62,85.73l-10.01,59.28c-5.86,30.87-30.36,49.33-63.13,49.33H649.6L638.79,229.13c-0.36,3.01,1.93,5.69,4.95,6.04,0.36,0.04,0.73,0.07,1.1,0.06h52.84c4.18,0.02,7.72-3.09,8.26-7.22l8.05-41.23h66.67c41.18,0,71.14-24.41,79.05-67l9.17-52.84c0.6-3.03-1.38-5.96-4.41-6.56-0.33-0.07-0.67-0.11-1.01-0.11h-49.85v24.45Z" fill="#faa61a"/>
</svg> 