<svg width="40" height="40" viewBox="0 0 40 40" fill="none" xmlns="http://www.w3.org/2000/svg">
<rect width="40" height="40" fill="#0F172A"/>
<path d="M25.4989 12.7502V15.7502M26.9989 14.2502H23.9989M13.4989 23.2502V24.7502M14.2489 24.0002H12.7489M17.9516 22.1252C17.8846 21.8656 17.7494 21.6288 17.5598 21.4392C17.3703 21.2497 17.1334 21.1144 16.8739 21.0474L12.2726 19.8609C12.1941 19.8387 12.125 19.7914 12.0758 19.7263C12.0266 19.6612 12 19.5818 12 19.5002C12 19.4186 12.0266 19.3392 12.0758 19.2741C12.125 19.209 12.1941 19.1617 12.2726 19.1394L16.8739 17.9522C17.1333 17.8853 17.3701 17.7501 17.5597 17.5607C17.7492 17.3713 17.8845 17.1346 17.9516 16.8752L19.1381 12.2739C19.1602 12.1951 19.2074 12.1257 19.2726 12.0762C19.3378 12.0268 19.4174 12 19.4992 12C19.5811 12 19.6607 12.0268 19.7259 12.0762C19.7911 12.1257 19.8383 12.1951 19.8604 12.2739L21.0461 16.8752C21.1131 17.1347 21.2484 17.3716 21.4379 17.5612C21.6274 17.7507 21.8643 17.886 22.1239 17.9529L26.7251 19.1387C26.8042 19.1605 26.874 19.2077 26.9237 19.273C26.9735 19.3383 27.0004 19.4181 27.0004 19.5002C27.0004 19.5823 26.9735 19.6621 26.9237 19.7274C26.874 19.7927 26.8042 19.8399 26.7251 19.8617L22.1239 21.0474C21.8643 21.1144 21.6274 21.2497 21.4379 21.4392C21.2484 21.6288 21.1131 21.8656 21.0461 22.1252L19.8596 26.7264C19.8376 26.8052 19.7903 26.8747 19.7251 26.9241C19.6599 26.9736 19.5803 27.0004 19.4985 27.0004C19.4166 27.0004 19.337 26.9736 19.2718 26.9241C19.2066 26.8747 19.1594 26.8052 19.1374 26.7264L17.9516 22.1252Z" stroke="#E4E4E7" stroke-width="1.25" stroke-linecap="round" stroke-linejoin="round"/>
</svg>
