<svg width="24" height="24" viewBox="0 0 24 24" fill="none" xmlns="http://www.w3.org/2000/svg">
<rect x="8.75" y="8.75" width="6.5" height="6.5" stroke="black" stroke-width="1.5"/>
<path d="M15.25 8V8.75H16H19C21.0711 8.75 22.75 7.07107 22.75 5C22.75 2.92893 21.0711 1.25 19 1.25C16.9289 1.25 15.25 2.92893 15.25 5V8Z" stroke="black" stroke-width="1.5"/>
<path d="M15.25 16V15.25H16H19C21.0711 15.25 22.75 16.9289 22.75 19C22.75 21.0711 21.0711 22.75 19 22.75C16.9289 22.75 15.25 21.0711 15.25 19V16Z" stroke="black" stroke-width="1.5"/>
<path d="M8.75 16V15.25H8H5C2.92893 15.25 1.25 16.9289 1.25 19C1.25 21.0711 2.92893 22.75 5 22.75C7.07107 22.75 8.75 21.0711 8.75 19V16Z" stroke="black" stroke-width="1.5"/>
<path d="M8.75 8V8.75H8H5C2.92893 8.75 1.25 7.07107 1.25 5C1.25 2.92893 2.92893 1.25 5 1.25C7.07107 1.25 8.75 2.92893 8.75 5V8Z" stroke="black" stroke-width="1.5"/>
</svg>
