<svg xmlns="http://www.w3.org/2000/svg" width="511" height="512" viewBox="0 0 511 512" fill="none">
<path d="M8.24194 100.813C8.24194 49.5536 49.7549 8.00004 100.964 8.00004C100.964 8.00004 195.374 -0.020216 256 3.8298e-05C316.236 0.0201623 410.036 8.00004 410.036 8.00004C461.245 8.00004 502.758 49.5536 502.758 100.813C502.758 100.813 511 195.005 511 255.5C511 315.995 502.758 410.188 502.758 410.188C502.758 461.446 461.245 503 410.036 503C410.036 503 316.258 511.977 256 512C195.353 512.023 100.964 503 100.964 503C49.7549 503 8.24194 461.446 8.24194 410.188C8.24194 410.188 0 315.995 0 255.5C0 195.005 8.24194 100.813 8.24194 100.813Z" fill="#F1F1F1"/>
</svg>