<svg width="60" height="60" viewBox="0 0 60 60" fill="none" xmlns="http://www.w3.org/2000/svg">
  <circle cx="30" cy="30" r="30" fill="#1F2937"/>
  <path d="M38.2305 33.7546C38.6145 33.4176 39.1955 33.4626 39.5255 33.8566C39.8565 34.2516 39.8105 34.8446 39.4255 35.1836C39.2845 35.3076 35.8805 38.2316 29.6395 38.2316C23.4015 38.2316 19.9985 35.3076 19.8555 35.1836C19.4705 34.8446 19.4245 34.2516 19.7555 33.8566C20.0855 33.4636 20.6635 33.4166 21.0485 33.7526L21.0489 33.753C21.1166 33.8096 24.1533 36.3506 29.6395 36.3506C35.2085 36.3506 38.2005 33.7806 38.2305 33.7546Z" fill="white"/>
  <circle cx="24" cy="28" r="2" fill="#1F2937"/>
  <circle cx="35" cy="28" r="2" fill="#1F2937"/>
</svg> 