<svg width="32" height="32" viewBox="0 0 32 32" fill="none" xmlns="http://www.w3.org/2000/svg">
<g clip-path="url(#clip0_219_550)">
<path d="M0 0H32V10.6687H0V0Z" fill="#FF9933"/>
<path d="M0 10.6687H32V21.3312H0V10.6687Z" fill="white"/>
<path d="M0 21.3313H32V32H0V21.3313Z" fill="#128807"/>
<path d="M16.0023 20.2667C18.3587 20.2667 20.2689 18.3565 20.2689 16.0001C20.2689 13.6436 18.3587 11.7334 16.0023 11.7334C13.6458 11.7334 11.7356 13.6436 11.7356 16.0001C11.7356 18.3565 13.6458 20.2667 16.0023 20.2667Z" fill="#000088"/>
<path d="M16.0029 19.7333C18.0647 19.7333 19.7362 18.0618 19.7362 15.9999C19.7362 13.9381 18.0647 12.2666 16.0029 12.2666C13.941 12.2666 12.2695 13.9381 12.2695 15.9999C12.2695 18.0618 13.941 19.7333 16.0029 19.7333Z" fill="white"/>
<path d="M16.0031 16.7465C16.4155 16.7465 16.7498 16.4122 16.7498 15.9998C16.7498 15.5875 16.4155 15.2532 16.0031 15.2532C15.5908 15.2532 15.2565 15.5875 15.2565 15.9998C15.2565 16.4122 15.5908 16.7465 16.0031 16.7465Z" fill="#000088"/>
<path d="M19.6808 16.6787C19.7859 16.6926 19.8823 16.6186 19.8962 16.5134C19.91 16.4083 19.836 16.3119 19.7309 16.298C19.6258 16.2842 19.5293 16.3582 19.5155 16.4633C19.5016 16.5684 19.5756 16.6649 19.6808 16.6787Z" fill="#000088"/>
<path d="M16.0045 19.7329L16.1325 17.4929L16.0045 16.4263L15.8765 17.4929L16.0045 19.7329Z" fill="#000088"/>
<path d="M19.386 17.6072C19.484 17.6478 19.5963 17.6013 19.6369 17.5033C19.6775 17.4053 19.6309 17.293 19.533 17.2524C19.435 17.2119 19.3227 17.2584 19.2821 17.3563C19.2415 17.4543 19.2881 17.5666 19.386 17.6072Z" fill="#000088"/>
<path d="M15.0453 19.6058L15.7487 17.4752L15.9011 16.4118L15.5014 17.409L15.0453 19.6058Z" fill="#000088"/>
<path d="M18.8523 18.4259C18.9364 18.4905 19.0569 18.4746 19.1215 18.3905C19.186 18.3064 19.1702 18.1858 19.086 18.1213C19.0019 18.0567 18.8814 18.0726 18.8168 18.1567C18.7523 18.2408 18.7681 18.3614 18.8523 18.4259Z" fill="#000088"/>
<path d="M14.1412 19.2331L15.3721 17.3572L15.7946 16.3694L15.1504 17.2292L14.1412 19.2331Z" fill="#000088"/>
<path d="M18.1222 19.0794C18.1867 19.1636 18.3073 19.1794 18.3914 19.1149C18.4755 19.0503 18.4914 18.9298 18.4268 18.8457C18.3623 18.7616 18.2417 18.7457 18.1576 18.8102C18.0735 18.8748 18.0576 18.9953 18.1222 19.0794Z" fill="#000088"/>
<path d="M13.3631 18.6396L15.0375 17.1462L15.7012 16.3014L14.8565 16.9652L13.3631 18.6396Z" fill="#000088"/>
<path d="M17.2578 19.5231C17.2983 19.621 17.4107 19.6676 17.5086 19.627C17.6066 19.5864 17.6531 19.4741 17.6125 19.3761C17.572 19.2781 17.4596 19.2316 17.3617 19.2722C17.2637 19.3128 17.2172 19.4251 17.2578 19.5231Z" fill="#000088"/>
<path d="M12.7746 17.8665L14.7785 16.8573L15.6382 16.2131L14.6505 16.6356L12.7746 17.8665Z" fill="#000088"/>
<path d="M16.2968 19.7263C16.3107 19.8315 16.4071 19.9055 16.5122 19.8916C16.6174 19.8778 16.6914 19.7813 16.6775 19.6762C16.6637 19.5711 16.5672 19.4971 16.4621 19.5109C16.357 19.5247 16.283 19.6212 16.2968 19.7263Z" fill="#000088"/>
<path d="M12.3952 16.9658L14.592 16.5097L15.5892 16.11L14.5257 16.2624L12.3952 16.9658Z" fill="#000088"/>
<path d="M15.3286 19.6761C15.3148 19.7813 15.3888 19.8777 15.4939 19.8915C15.599 19.9054 15.6955 19.8314 15.7093 19.7262C15.7232 19.6211 15.6491 19.5247 15.544 19.5108C15.4389 19.497 15.3424 19.571 15.3286 19.6761Z" fill="#000088"/>
<path d="M12.274 15.9998L14.514 16.1278L15.5807 15.9998L14.514 15.8718L12.274 15.9998Z" fill="#000088"/>
<path d="M14.4026 19.3752C14.362 19.4731 14.4085 19.5854 14.5065 19.626C14.6044 19.6666 14.7168 19.6201 14.7573 19.5221C14.7979 19.4241 14.7514 19.3118 14.6534 19.2713C14.5555 19.2307 14.4431 19.2772 14.4026 19.3752Z" fill="#000088"/>
<path d="M12.4031 15.0337L14.5337 15.7371L15.5971 15.8895L14.5999 15.4898L12.4031 15.0337Z" fill="#000088"/>
<path d="M13.5876 18.8443C13.5231 18.9285 13.5389 19.049 13.6231 19.1135C13.7072 19.1781 13.8277 19.1622 13.8923 19.0781C13.9568 18.994 13.941 18.8735 13.8568 18.8089C13.7727 18.7443 13.6522 18.7602 13.5876 18.8443Z" fill="#000088"/>
<path d="M12.7807 14.1335L14.6566 15.3644L15.6444 15.7869L14.7846 15.1427L12.7807 14.1335Z" fill="#000088"/>
<path d="M12.9291 18.1194C12.845 18.1839 12.8291 18.3044 12.8937 18.3886C12.9582 18.4727 13.0787 18.4886 13.1629 18.424C13.247 18.3595 13.2629 18.2389 13.1983 18.1548C13.1338 18.0707 13.0132 18.0548 12.9291 18.1194Z" fill="#000088"/>
<path d="M13.3697 13.3603L14.8631 15.0347L15.7078 15.6984L15.0441 14.8537L13.3697 13.3603Z" fill="#000088"/>
<path d="M12.483 17.2502C12.3851 17.2908 12.3385 17.4031 12.3791 17.5011C12.4197 17.599 12.532 17.6455 12.63 17.605C12.728 17.5644 12.7745 17.4521 12.7339 17.3541C12.6933 17.2561 12.581 17.2096 12.483 17.2502Z" fill="#000088"/>
<path d="M14.1395 12.7668L15.1487 14.7706L15.7928 15.6304L15.3704 14.6426L14.1395 12.7668Z" fill="#000088"/>
<path d="M12.2869 16.2957C12.1817 16.3096 12.1077 16.406 12.1216 16.5111C12.1354 16.6163 12.2319 16.6903 12.337 16.6764C12.4421 16.6626 12.5161 16.5661 12.5023 16.461C12.4884 16.3559 12.392 16.2819 12.2869 16.2957Z" fill="#000088"/>
<path d="M15.0479 12.3941L15.504 14.5909L15.9037 15.5881L15.7513 14.5246L15.0479 12.3941Z" fill="#000088"/>
<path d="M12.3401 15.321C12.235 15.3072 12.1385 15.3812 12.1247 15.4863C12.1109 15.5915 12.1849 15.6879 12.29 15.7017C12.3951 15.7156 12.4916 15.6416 12.5054 15.5364C12.5192 15.4313 12.4452 15.3349 12.3401 15.321Z" fill="#000088"/>
<path d="M16.0164 12.2668L15.8884 14.5068L16.0164 15.5735L16.1444 14.5068L16.0164 12.2668Z" fill="#000088"/>
<path d="M12.6452 14.3926C12.5473 14.352 12.4349 14.3985 12.3944 14.4965C12.3538 14.5944 12.4003 14.7067 12.4983 14.7473C12.5962 14.7879 12.7086 14.7414 12.7491 14.6434C12.7897 14.5454 12.7432 14.4331 12.6452 14.3926Z" fill="#000088"/>
<path d="M16.986 12.394L16.2826 14.5245L16.1301 15.588L16.5299 14.5908L16.986 12.394Z" fill="#000088"/>
<path d="M13.162 13.5738C13.0779 13.5093 12.9574 13.5251 12.8928 13.6093C12.8282 13.6934 12.8441 13.8139 12.9282 13.8785C13.0124 13.943 13.1329 13.9272 13.1974 13.843C13.262 13.7589 13.2461 13.6384 13.162 13.5738Z" fill="#000088"/>
<path d="M17.873 12.7667L16.6422 14.6426L16.2197 15.6303L16.8639 14.7706L17.873 12.7667Z" fill="#000088"/>
<path d="M13.8921 12.9203C13.8276 12.8362 13.707 12.8203 13.6229 12.8849C13.5388 12.9494 13.5229 13.0699 13.5875 13.1541C13.652 13.2382 13.7725 13.2541 13.8567 13.1895C13.9408 13.125 13.9567 13.0044 13.8921 12.9203Z" fill="#000088"/>
<path d="M18.6512 13.3601L16.9768 14.8536L16.3131 15.6983L17.1578 15.0346L18.6512 13.3601Z" fill="#000088"/>
<path d="M14.7527 12.4769C14.7122 12.379 14.5998 12.3324 14.5019 12.373C14.4039 12.4136 14.3574 12.5259 14.398 12.6239C14.4385 12.7219 14.5509 12.7684 14.6488 12.7278C14.7468 12.6872 14.7933 12.5749 14.7527 12.4769Z" fill="#000088"/>
<path d="M19.2359 14.1335L17.232 15.1427L16.3723 15.7869L17.36 15.3644L19.2359 14.1335Z" fill="#000088"/>
<path d="M15.7137 12.2737C15.6998 12.1685 15.6034 12.0945 15.4983 12.1084C15.3931 12.1222 15.3191 12.2187 15.333 12.3238C15.3468 12.4289 15.4433 12.5029 15.5484 12.4891C15.6535 12.4753 15.7275 12.3788 15.7137 12.2737Z" fill="#000088"/>
<path d="M19.6153 15.0342L17.4185 15.4903L16.4213 15.89L17.4848 15.7376L19.6153 15.0342Z" fill="#000088"/>
<path d="M16.6858 12.3239C16.6996 12.2187 16.6256 12.1223 16.5205 12.1085C16.4154 12.0946 16.3189 12.1686 16.3051 12.2738C16.2912 12.3789 16.3653 12.4753 16.4704 12.4892C16.5755 12.503 16.672 12.429 16.6858 12.3239Z" fill="#000088"/>
<path d="M19.7404 16.0002L17.5004 15.8722L16.4337 16.0002L17.5004 16.1282L19.7404 16.0002Z" fill="#000088"/>
<path d="M17.6118 12.6248C17.6524 12.5269 17.6059 12.4146 17.5079 12.374C17.41 12.3334 17.2976 12.3799 17.2571 12.4779C17.2165 12.5759 17.263 12.6882 17.361 12.7287C17.4589 12.7693 17.5713 12.7228 17.6118 12.6248Z" fill="#000088"/>
<path d="M19.6113 16.9663L17.4807 16.2629L16.4173 16.1105L17.4145 16.5102L19.6113 16.9663Z" fill="#000088"/>
<path d="M18.4323 13.1559C18.4968 13.0718 18.481 12.9512 18.3968 12.8867C18.3127 12.8221 18.1922 12.838 18.1276 12.9221C18.0631 13.0063 18.0789 13.1268 18.1631 13.1913C18.2472 13.2559 18.3677 13.24 18.4323 13.1559Z" fill="#000088"/>
<path d="M19.2392 17.8667L17.3633 16.6358L16.3755 16.2134L17.2353 16.8576L19.2392 17.8667Z" fill="#000088"/>
<path d="M19.0777 13.8809C19.1619 13.8163 19.1777 13.6958 19.1132 13.6117C19.0486 13.5275 18.9281 13.5117 18.844 13.5762C18.7598 13.6408 18.744 13.7613 18.8085 13.8454C18.8731 13.9296 18.9936 13.9454 19.0777 13.8809Z" fill="#000088"/>
<path d="M18.6372 18.64L17.1438 16.9656L16.299 16.3018L16.9627 17.1466L18.6372 18.64Z" fill="#000088"/>
<path d="M19.5341 14.7498C19.632 14.7092 19.6785 14.5969 19.638 14.4989C19.5974 14.401 19.4851 14.3545 19.3871 14.395C19.2891 14.4356 19.2426 14.5479 19.2832 14.6459C19.3238 14.7439 19.4361 14.7904 19.5341 14.7498Z" fill="#000088"/>
<path d="M17.8775 19.233L16.8683 17.2291L16.2241 16.3693L16.6466 17.3571L17.8775 19.233Z" fill="#000088"/>
<path d="M19.7327 15.7043C19.8378 15.6904 19.9118 15.594 19.898 15.4889C19.8841 15.3837 19.7877 15.3097 19.6825 15.3236C19.5774 15.3374 19.5034 15.4339 19.5172 15.539C19.5311 15.6441 19.6275 15.7181 19.7327 15.7043Z" fill="#000088"/>
<path d="M16.9717 19.6059L16.5155 17.4091L16.1158 16.4119L16.2683 17.4754L16.9717 19.6059Z" fill="#000088"/>
</g>
<defs>
<clipPath id="clip0_219_550">
<rect width="32" height="32" fill="white"/>
</clipPath>
</defs>
</svg>
