
<svg xmlns="http://www.w3.org/2000/svg" width="184" height="44" viewBox="0 0 184 44" fill="none">
  <g clip-path="url(#clip0_1902_13539)">
    <path d="M-1.92921e-06 1.94624e-05C8.14447 16.5079 51.6255 38.475 82.627 42.3745C116.124 46.6639 135.435 43.0244 174.843 24.6968C174.318 27.2964 173.661 29.3762 173.398 31.3259C173.004 33.5356 172.61 35.8753 172.742 38.085C172.742 38.7349 173.924 39.9048 174.712 40.0348C175.5 40.1648 176.814 39.2549 177.077 38.605C179.441 32.3658 181.543 26.1266 183.776 19.7574C184.433 17.6777 183.645 16.1179 181.412 15.468C172.873 13.3883 164.334 11.1786 155.665 9.22881C153.694 8.83886 151.33 9.35879 148.702 9.35879C150.804 14.9481 155.533 14.2981 158.949 15.728C162.495 17.2878 166.305 18.1976 170.903 19.7574C159.999 27.0365 148.965 31.5859 137.274 34.4455C94.4496 45.1041 55.0409 36.2653 18.6535 12.6084C13.9244 9.48878 9.58949 5.84925 4.9918 2.59968C3.54681 1.94976 2.23317 1.29985 -1.92921e-06 1.94624e-05Z" fill="white"/>
  </g>
  <defs>
    <clipPath id="clip0_1902_13539">
      <rect width="184" height="44" fill="white" transform="matrix(1 0 0 -1 0 44)"/>
    </clipPath>
  </defs>
</svg>
