<svg width="37" height="24" viewBox="0 0 37 24" fill="none" xmlns="http://www.w3.org/2000/svg">
<g clip-path="url(#clip0_1298_8885)">
<path d="M35.6001 0H2.00005C1.33731 0 0.800049 0.537258 0.800049 1.2V22.8C0.800049 23.4627 1.33731 24 2.00005 24H35.6001C36.2628 24 36.8 23.4627 36.8 22.8V1.2C36.8 0.537258 36.2628 0 35.6001 0Z" fill="white"/>
<path fill-rule="evenodd" clip-rule="evenodd" d="M30.0585 16.3969V16.1216H29.9866L29.904 16.311L29.8212 16.1216H29.7493V16.3969H29.8001V16.1892L29.8776 16.3683H29.9302L30.0079 16.1888V16.3969H30.0585ZM29.6032 16.3969V16.1685H29.6953V16.122H29.4607V16.1685H29.5528V16.3969H29.6032Z" fill="#F79E1B"/>
<path fill-rule="evenodd" clip-rule="evenodd" d="M15.6956 17.5786H21.9043V6.42139H15.6956V17.5786Z" fill="#FF5F00"/>
<path fill-rule="evenodd" clip-rule="evenodd" d="M30.2803 12C30.2803 15.9188 27.1038 19.0955 23.1852 19.0955C21.5299 19.0955 20.0069 18.5286 18.8 17.5786C20.4504 16.2793 21.5102 14.2633 21.5102 12C21.5102 9.73646 20.4504 7.72052 18.8 6.42122C20.0069 5.47118 21.5299 4.9043 23.1852 4.9043C27.1038 4.9043 30.2803 8.081 30.2803 12Z" fill="#F79E1B"/>
<path fill-rule="evenodd" clip-rule="evenodd" d="M16.0897 12C16.0897 9.73646 17.1495 7.72052 18.7998 6.42122C17.593 5.47118 16.0699 4.9043 14.4147 4.9043C10.4961 4.9043 7.31958 8.081 7.31958 12C7.31958 15.9188 10.4961 19.0955 14.4147 19.0955C16.0699 19.0955 17.593 18.5286 18.7998 17.5786C17.1495 16.2793 16.0897 14.2633 16.0897 12Z" fill="#EB001B"/>
</g>
<path d="M0.950049 4C0.950049 1.8737 2.67375 0.15 4.80005 0.15H32.8C34.9263 0.15 36.65 1.8737 36.65 4V20C36.65 22.1263 34.9263 23.85 32.8 23.85H4.80005C2.67375 23.85 0.950049 22.1263 0.950049 20V4Z" stroke="#E2E8F0" stroke-width="0.3"/>
<defs>
<clipPath id="clip0_1298_8885">
<path d="M0.800049 4C0.800049 1.79086 2.59091 0 4.80005 0H32.8C35.0092 0 36.8 1.79086 36.8 4V20C36.8 22.2091 35.0092 24 32.8 24H4.80005C2.59091 24 0.800049 22.2091 0.800049 20V4Z" fill="white"/>
</clipPath>
</defs>
</svg>
